<svg xmlns="http://www.w3.org/2000/svg" viewBox="0 0 153 50"><defs><style>.a{fill:#283b49;}.b{fill:#293a48;}.c{fill:#df4335;}</style></defs><title>logo</title><path class="a" d="M71.94,20.31c0-1.06,1.21-1.63,2.54-1.63,2.34,0,3.26,1.22,4.25,2.36A4.56,4.56,0,0,0,82,22.54c1.6,0.1,3-.33,3.3-1.29,0.81-2.92-6-4.68-10.86-4.68-6.58,0-11.42,1.23-11.88,4.85-1,7.83,13.83,5.17,14.24,9.1,0.15,1.43-1.4,2-3.12,2-2.35,0-3.55-1.57-4.55-2.7a4.08,4.08,0,0,0-3.54-1.6c-1.71.05-3.07,0.48-3.47,1.73-1,3,6.67,4.68,11.57,4.68,6.41,0,13.27-1,13.27-6C87,22.24,72.05,24,71.94,20.31Z"/><path class="b" d="M151.42,27.35V22.74c0-5-5.88-6.18-12.3-6.18-4.9,0-12,1.57-11.23,4.68,0.26,1,1.88,1.34,3.41,1.28a4.86,4.86,0,0,0,3.3-1.6c1-1.14,1.84-2.25,4.19-2.25,1.22,0,2.51.54,2.51,1.53,0,1.85-2.81,2.19-6.94,3.12s-8.52,2.24-8.52,6c0,5.42,9.6,6.91,15.86,2.84,1.47,1.74,6.19,3.67,11.31.86C151.44,31.25,151.42,29.94,151.42,27.35Zm-9.74.35c0,1.27-.09,2.57-2.23,3.15-1.53.41-3.4-.07-3.53-2-0.19-2.94,3.21-3.52,5.76-4.32v3.2Z"/><path class="a" d="M60.8,22.74c0-5-5.88-6.18-12.29-6.18-4.9,0-12,1.57-11.22,4.68,0.25,1,1.87,1.34,3.41,1.28A4.85,4.85,0,0,0,44,20.93c1-1.14,1.84-2.25,4.18-2.25,1.22,0,2.51.54,2.51,1.53,0,1.85-2.81,2.19-6.94,3.12s-8.52,2.24-8.52,6c0,5.42,9.6,6.91,15.85,2.84,1.47,1.74,6.19,3.67,11.31.86-1.56-1.82-1.59-3.13-1.59-5.72V22.74Zm-9.74,5c0,1.27-.09,2.57-2.23,3.15-1.53.41-3.4-.07-3.53-2-0.18-2.94,3.21-3.52,5.76-4.32v3.2Z"/><path class="a" d="M124.59,17h-5.47c-3.78,0-4.27.55-4.27,2V30.51c0,4.37,7.38,5,11.32,2.56-1.54-1.92-1.58-2.66-1.58-6.55V17Z"/><path class="a" d="M119.72,15.94c2.67,0,5.12-.62,5.12-3.21s-2.45-3.2-5.12-3.2-5.12.62-5.12,3.2S117.05,15.94,119.72,15.94Z"/><path class="a" d="M110.15,27.48c-1.21-1.54-2-2.6-3-4.1L113.23,17h-6c-1.91,0-4.52.4-5.79,2-0.58.7-2.27,2.72-3.52,4.2V9l-8.2,2.83a2,2,0,0,0-1.54,2.1V26.52c0,3.88,0,4.62-1.59,6.55,3.94,2.46,11.33,1.82,11.33-2.56V25.46c1.23,1.75,3,4.09,4.06,5.62,1.65,2.28,3,3.23,6.73,3.4A10.88,10.88,0,0,0,115,33C114.06,32.29,113,31.11,110.15,27.48Z"/><path class="c" d="M0,26c0,1.13.39,2,1.54,1.56,0.9-.3,1.42-0.48,2.29-0.8a2,2,0,0,0,1.54-2.11V13.76c0-1.12-.39-2-1.54-1.56-0.9.31-1.43,0.48-2.3,0.8A2,2,0,0,0,0,15.1V26Z"/><path class="c" d="M8.6,23c0,1.13.39,2,1.54,1.56,0.9-.3,1.42-0.48,2.29-0.8A2,2,0,0,0,14,21.7V10.78c0-1.12-.39-2-1.54-1.56-0.9.31-1.42,0.48-2.3,0.8a2,2,0,0,0-1.54,2.1V23Z"/><path class="c" d="M17.18,20.06c0,1.13.39,2,1.54,1.56,0.9-.3,1.42-0.48,2.29-0.8a2,2,0,0,0,1.54-2.11V13.79c0-1.13-.39-2-1.54-1.56-0.9.31-1.43,0.48-2.3,0.8a2,2,0,0,0-1.54,2.1v4.93Z"/><path class="c" d="M25.76,17c0,1.13.39,2,1.54,1.56,0.9-.3,1.42-0.48,2.29-0.8a2,2,0,0,0,1.54-2.11V10.77c0-1.12-.39-2-1.54-1.56-0.9.31-1.42,0.48-2.29,0.8a2,2,0,0,0-1.54,2.1V17Z"/><path class="c" d="M5.38,40.16c0,1.13-.39,2-1.54,1.56l-2.3-.8A1.9,1.9,0,0,1,0,38.81v-5.7A1.9,1.9,0,0,1,1.54,31l2.3-.8c1.15-.39,1.54.43,1.54,1.56v8.39Z"/><path class="c" d="M14,37.16c0,1.13-.39,2-1.54,1.56l-2.3-.8a1.9,1.9,0,0,1-1.54-2.11v-5.7A1.9,1.9,0,0,1,10.13,28l2.3-.8c1.15-.39,1.54.43,1.54,1.56v8.39Z"/><path class="c" d="M22.56,40.15c0,1.13-.39,2-1.54,1.56l-2.3-.8a1.9,1.9,0,0,1-1.54-2.11V27.13A1.9,1.9,0,0,1,18.72,25l2.3-.8c1.15-.39,1.54.43,1.54,1.56V40.15Z"/><path class="c" d="M31.14,37.13c0,1.13-.39,2-1.54,1.56l-2.3-.8a1.9,1.9,0,0,1-1.54-2.11V24.11A1.9,1.9,0,0,1,27.3,22l2.3-.8c1.15-.39,1.54.43,1.54,1.56V37.13Z"/></svg>