<svg xmlns="http://www.w3.org/2000/svg" width="200" height="43" viewBox="0 0 200 43">
  <g fill="none" fill-rule="evenodd">
    <g transform="translate(45.766 .306)">
      <path class="logotext" fill="#25333C" d="M47.6926579,14.7484342 C47.6502237,13.3713026 49.2678158,12.6363421 50.9957368,12.6363421 C54.0396842,12.6363421 55.2301053,14.2267763 56.5206711,15.7046184 C57.3450263,16.6421316 58.6542632,17.5026974 60.8133158,17.6424474 C62.8942895,17.7742763 64.7534737,17.2186711 65.1008684,15.9682763 C66.1594605,12.1701316 57.3659605,9.88434211 50.9957368,9.88434211 C42.441,9.88434211 36.1573421,11.4776053 35.5672237,16.1832763 C34.3004211,26.3493816 53.5287763,22.8969342 54.0713684,28.00375 C54.2716579,29.8572763 52.2540526,30.6346711 50.0208816,30.6346711 C46.9735395,30.6346711 45.4068684,28.6017895 44.1112105,27.1267763 C43.2868553,26.1892632 42.1117105,24.9801711 39.5073816,25.0537237 C37.2894868,25.1250132 35.5196974,25.6755263 34.9929474,27.3033026 C33.7499079,31.1506711 43.6551842,33.3895 50.0208816,33.3895 C58.3532632,33.3895 67.2655789,32.1170395 67.2655789,25.6308289 C67.2655789,17.2582763 47.8397632,19.5231316 47.6926579,14.7484342"/>
      <path class="logotext" fill="#25333C" d="M20.5658816 24.3510132C20.5658816 26.0048158 20.4498947 27.6903026 17.6633816 28.4382763 15.6780263 28.9757763 13.2445658 28.3483158 13.0810526 25.8045263 12.8439868 21.9854474 17.2526184 21.2272895 20.5658816 20.1975526 20.5658816 22.8624211 20.5658816 22.6887237 20.5658816 24.3510132zM33.2231579 17.9061053C33.2231579 11.4170658 25.5855658 9.88434211 17.2526184 9.88434211 10.8846579 9.88434211 1.68265789 11.9302368 2.67278947 15.9682763 2.99925 17.3086316 5.10625 17.7114737 7.10518421 17.6294342 8.97794737 17.5558816 10.5632895 16.4871053 11.3825526 15.5569474 12.6782105 14.0796711 13.7713158 12.6363421 16.8152632 12.6363421 18.4062632 12.6363421 20.0815658 13.3367895 20.0815658 14.6222632 20.0815658 17.0313947 16.426 17.4636579 11.0634474 18.6699211 5.67769737 19.8733553-1.0658141e-14 21.57525-1.0658141e-14 26.5287368-1.0658141e-14 33.5631974 12.4677368 35.5015921 20.5947368 30.2131579 22.5042763 32.4751842 28.6329079 34.9855921 35.2854605 31.3243684 33.2605 28.9599342 33.2231579 27.2529474 33.2231579 23.9000789 33.2231579 21.1299737 33.2231579 20.7871053 33.2231579 17.9061053L33.2231579 17.9061053zM109.765421 9.073C113.231447 9.073 116.417974 8.26957895 116.417974 4.90143421 116.417974 1.54064474 113.231447.739486842 109.765421.739486842 106.294303.739486842 103.110039 1.54064474 103.110039 4.90143421 103.110039 8.26957895 106.294303 9.073 109.765421 9.073M97.3265395 24.0607632C95.7491184 22.0595658 94.7770921 20.6846974 93.4288158 18.7327237L101.324974 10.4076974C101.324974 10.4076974 96.0042895 10.4076974 93.5131184 10.4076974 91.0321316 10.4076974 87.6453158 10.9265263 85.9915132 12.9418684 85.2378816 13.8556184 83.0363947 16.4735263 81.4244605 18.3960789L81.4244605 3.55271368e-14 70.7689474 3.67140789C69.2933684 4.20834211 68.7671842 4.94839474 68.7671842 6.40473684L68.7671842 22.8205526C68.7671842 27.8668289 68.7173947 28.8252763 66.7077105 31.3243684 71.8247105 34.5142895 81.4244605 33.6842763 81.4244605 28.00375L81.4244605 21.4377632C83.0262105 23.7054474 85.2593816 26.7527895 86.7027105 28.7387105 88.8408289 31.6983553 90.6423026 32.9312105 95.4515132 33.1524342 98.4326579 33.2921842 100.690158 32.8361579 103.594355 31.2643947 102.409592 30.3161316 101.061316 28.7805789 97.3265395 24.0607632"/>
      <path class="logotext" fill="#26333B" d="M138.280079,24.3510132 C138.280079,26.0048158 138.159,27.6903026 135.377579,28.4382763 C133.387132,28.9757763 130.958763,28.3483158 130.79525,25.8045263 C130.553092,21.9854474 134.964553,21.2272895 138.280079,20.1975526 C138.280079,22.8624211 138.280079,22.6887237 138.280079,24.3510132 Z M150.937355,23.9000789 C150.937355,21.1299737 150.937355,20.7871053 150.937355,17.9061053 C150.937355,11.4170658 143.294105,9.88434211 134.964553,9.88434211 C128.593197,9.88434211 119.391197,11.9302368 120.381329,15.9682763 C120.713447,17.3086316 122.820447,17.7114737 124.811461,17.6294342 C126.687053,17.5558816 128.272395,16.4871053 129.093921,15.5569474 C130.389579,14.0796711 131.484947,12.6363421 134.532289,12.6363421 C136.120461,12.6363421 137.790105,13.3367895 137.790105,14.6222632 C137.790105,17.0313947 134.134539,17.4636579 128.771987,18.6699211 C123.386803,19.8733553 117.708539,21.57525 117.708539,26.5287368 C117.708539,33.5631974 130.179105,35.5015921 138.306671,30.2131579 C140.213382,32.4751842 146.344276,34.9855921 152.994566,31.3243684 C150.969039,28.9599342 150.937355,27.2529474 150.937355,23.9000789 L150.937355,23.9000789 Z"/>
      <path class="logotext" fill="#25333C" d="M116.093776,10.4076974 L108.9835,10.4076974 C104.076974,10.4076974 103.4365,11.1217237 103.4365,12.9526184 L103.4365,28.00375 C103.4365,33.6842763 113.028329,34.5142895 118.148158,31.3243684 C116.141303,28.8252763 116.093776,27.8668289 116.093776,22.8205526 C116.093776,20.0549737 116.093776,13.2949211 116.093776,10.4076974"/>
    </g>
    <path class="logobar" fill="#CD4037" d="M.00565789474 21.9677802C.00565789474 23.4314775.510342105 24.502517 2.00685526 23.9950038 3.17521053 23.5989512 3.85359211 23.3709381 4.98517105 22.9579117 6.46867105 22.4204117 6.99202632 21.678096 6.99202632 20.2211881L6.99768421 6.03345121C6.99768421 4.572017 6.48507895 3.4919249 4.99365789 4.00566174 3.82813158 4.40737227 3.13956579 4.63255648 2.00176316 5.04331964.527315789 5.57572753 2.13162821e-14 6.32087227 2.13162821e-14 7.77721437L.00565789474 21.9677802M11.1664211 18.0960828C11.1664211 19.560346 11.6722368 20.6313854 13.1681842 20.1238723 14.3365395 19.7278196 15.0143553 19.4992407 16.1470658 19.0862144 17.6294342 18.5492802 18.1539211 17.8063986 18.1539211 16.3500565L18.1510921 2.16231964C18.1510921.700885425 17.6384868-.37977247 16.1470658.134530162 14.9815395.535674898 14.3003289.760859109 13.1630921 1.17218806 11.6880789 1.70403016 11.1618947 2.4491749 11.1618947 3.90608279L11.1664211 18.0960828M22.3198289 14.2187275C22.3198289 15.6835565 22.8256447 16.754596 24.3215921 16.2470828 25.4899474 15.8510302 26.1677632 15.623017 27.3004737 15.2094249 28.7828421 14.6719249 29.3073289 13.9290433 29.3073289 12.4727012L29.3129868 6.07475385C29.3129868 4.61275385 28.7998158 3.53209595 27.3083947 4.04639858 26.1428684 4.44810911 25.4537368 4.67329332 24.3159342 5.08405648 22.8414868 5.61589858 22.3147368 6.36104332 22.3147368 7.81795121L22.3198289 14.2187275M33.4681447 10.3023328C33.4681447 11.766596 33.9739605 12.8376354 35.4699079 12.3301223 36.6382632 11.9340696 37.3160789 11.7060565 38.4487895 11.2924644 39.9311579 10.7555302 40.4556447 10.0132144 40.4556447 8.55630648L40.4528158 2.15779332C40.4528158.696359109 39.9402105-.384298786 38.4487895.130003846 37.2832632.531148583 36.6105395.756332793 35.4727368 1.16766174 33.9982895 1.69950385 33.4709737 2.44521437 33.4709737 3.90155648L33.4681447 10.3023328M6.99202632 40.3355696C6.99202632 41.7998328 6.48734211 42.8708723 4.99082895 42.3633591L2.00685526 41.326267C.448105263 40.7768854.00565789474 40.0441881.00565789474 38.585017L.00565789474 31.1805302C.00565789474 29.7219249.448105263 28.9886617 2.00685526 28.4387144L4.99082895 27.4021881C6.48734211 26.8946749 6.99202632 27.9657144 6.99202632 29.4299775L6.99202632 40.3355696M18.1482632 36.4310565C18.1482632 37.8958854 17.6435789 38.9663591 16.1470658 38.4594117L13.1630921 37.4223196C11.6043421 36.8723723 11.1618947 36.1396749 11.1618947 34.6805038L11.1618947 27.276017C11.1618947 25.8174117 11.6043421 25.0841486 13.1630921 24.534767L16.1470658 23.4976749C17.6435789 22.9901617 18.1482632 24.0612012 18.1482632 25.5254644L18.1482632 36.4310565M29.3050658 40.3174644C29.3050658 41.7822933 28.7998158 42.852767 27.3038684 42.3458196L24.3198947 41.3087275C22.7611447 40.7587802 22.3181316 40.025517 22.3181316 38.5669117L22.3181316 23.4026223C22.3181316 21.9434512 22.7611447 21.2107538 24.3198947 20.6608065L27.3038684 19.6237144C28.7998158 19.1162012 29.3050658 20.1872407 29.3050658 21.6520696L29.3050658 40.3174644M40.4556447 36.3954117C40.4556447 37.8602407 39.9498289 38.9312802 38.4538816 38.423767L35.4699079 37.3866749C33.9111579 36.8372933 33.4681447 36.104596 33.4681447 34.6454249L33.4681447 19.4805696C33.4681447 18.0219644 33.9111579 17.2887012 35.4699079 16.7387538L38.4538816 15.7022275C39.9498289 15.1947144 40.4556447 16.2657538 40.4556447 17.730017L40.4556447 36.3954117" transform="translate(0 .509)"/>
  </g>
</svg>
