<?xml version="1.0" encoding="utf-8"?>
<!-- Generator: Adobe Illustrator 20.1.0, SVG Export Plug-In . SVG Version: 6.00 Build 0)  -->
<!DOCTYPE svg PUBLIC "-//W3C//DTD SVG 1.1//EN" "http://www.w3.org/Graphics/SVG/1.1/DTD/svg11.dtd">
<svg version="1.1" id="Layer_1" xmlns="http://www.w3.org/2000/svg" xmlns:xlink="http://www.w3.org/1999/xlink" x="0px" y="0px"
	 viewBox="0 0 153 50" style="enable-background:new 0 0 153 50;" xml:space="preserve">
<style type="text/css">
	.st0{fill:#FFFFFF;}
</style>
<title>logo</title>
<path class="st0" d="M71.9,20.3c0-1.1,1.2-1.6,2.5-1.6c2.3,0,3.3,1.2,4.2,2.4c0.8,0.9,2,1.5,3.3,1.5c1.6,0.1,3-0.3,3.3-1.3
	c0.8-2.9-6-4.7-10.9-4.7c-6.6,0-11.4,1.2-11.9,4.9c-1,7.8,13.8,5.2,14.2,9.1c0.2,1.4-1.4,2-3.1,2c-2.3,0-3.6-1.6-4.6-2.7
	c-0.8-1.1-2.2-1.7-3.5-1.6c-1.7,0-3.1,0.5-3.5,1.7c-1,3,6.7,4.7,11.6,4.7c6.4,0,13.3-1,13.3-6C87,22.2,72.1,24,71.9,20.3z"/>
<path class="st0" d="M151.4,27.4v-4.6c0-5-5.9-6.2-12.3-6.2c-4.9,0-12,1.6-11.2,4.7c0.3,1,1.9,1.3,3.4,1.3c1.3-0.1,2.5-0.7,3.3-1.6
	c1-1.1,1.8-2.2,4.2-2.2c1.2,0,2.5,0.5,2.5,1.5c0,1.9-2.8,2.2-6.9,3.1s-8.5,2.2-8.5,6c0,5.4,9.6,6.9,15.9,2.8
	c1.5,1.7,6.2,3.7,11.3,0.9C151.4,31.2,151.4,29.9,151.4,27.4z M141.7,27.7c0,1.3-0.1,2.6-2.2,3.1c-1.5,0.4-3.4-0.1-3.5-2
	c-0.2-2.9,3.2-3.5,5.8-4.3v3.2H141.7z"/>
<path class="st0" d="M60.8,22.7c0-5-5.9-6.2-12.3-6.2c-4.9,0-12,1.6-11.2,4.7c0.2,1,1.9,1.3,3.4,1.3c1.3-0.1,2.5-0.6,3.3-1.6
	c1-1.1,1.8-2.2,4.2-2.2c1.2,0,2.5,0.5,2.5,1.5c0,1.9-2.8,2.2-6.9,3.1s-8.5,2.2-8.5,6c0,5.4,9.6,6.9,15.9,2.8
	c1.5,1.7,6.2,3.7,11.3,0.9c-1.6-1.8-1.6-3.1-1.6-5.7C60.8,27.3,60.8,22.7,60.8,22.7z M51.1,27.7c0,1.3-0.1,2.6-2.2,3.1
	c-1.5,0.4-3.4-0.1-3.5-2c-0.2-2.9,3.2-3.5,5.8-4.3L51.1,27.7L51.1,27.7z"/>
<path class="st0" d="M124.6,17h-5.5c-3.8,0-4.3,0.5-4.3,2v11.5c0,4.4,7.4,5,11.3,2.6c-1.5-1.9-1.6-2.7-1.6-6.5L124.6,17L124.6,17z"
	/>
<path class="st0" d="M119.7,15.9c2.7,0,5.1-0.6,5.1-3.2s-2.4-3.2-5.1-3.2s-5.1,0.6-5.1,3.2S117.1,15.9,119.7,15.9z"/>
<path class="st0" d="M110.2,27.5c-1.2-1.5-2-2.6-3-4.1l6.1-6.4h-6c-1.9,0-4.5,0.4-5.8,2c-0.6,0.7-2.3,2.7-3.5,4.2V9l-8.2,2.8
	c-1,0.2-1.6,1.1-1.5,2.1v12.6c0,3.9,0,4.6-1.6,6.5c3.9,2.5,11.3,1.8,11.3-2.6v-5.1c1.2,1.8,3,4.1,4.1,5.6c1.7,2.3,3,3.2,6.7,3.4
	c2.2,0.2,4.4-0.4,6.3-1.5C114.1,32.3,113,31.1,110.2,27.5z"/>
<path class="st0" d="M0,26c0,1.1,0.4,2,1.5,1.6c0.9-0.3,1.4-0.5,2.3-0.8c1-0.2,1.6-1.1,1.5-2.1V13.8c0-1.1-0.4-2-1.5-1.6
	c-0.9,0.3-1.4,0.5-2.3,0.8c-1,0.2-1.6,1.1-1.5,2.1C0,15.1,0,26,0,26z"/>
<path class="st0" d="M8.6,23c0,1.1,0.4,2,1.5,1.6c0.9-0.3,1.4-0.5,2.3-0.8c1-0.2,1.6-1.1,1.6-2.1V10.8c0-1.1-0.4-2-1.5-1.6
	C11.6,9.5,11,9.7,10.2,10c-1,0.2-1.6,1.1-1.5,2.1L8.6,23L8.6,23z"/>
<path class="st0" d="M17.2,20.1c0,1.1,0.4,2,1.5,1.6c0.9-0.3,1.4-0.5,2.3-0.8c1-0.2,1.6-1.1,1.5-2.1v-4.9c0-1.1-0.4-2-1.5-1.6
	c-0.9,0.3-1.4,0.5-2.3,0.8c-1,0.2-1.6,1.1-1.5,2.1V20.1L17.2,20.1z"/>
<path class="st0" d="M25.8,17c0,1.1,0.4,2,1.5,1.6c0.9-0.3,1.4-0.5,2.3-0.8c1-0.2,1.6-1.1,1.5-2.1v-4.9c0-1.1-0.4-2-1.5-1.6
	c-0.9,0.3-1.4,0.5-2.3,0.8c-1,0.2-1.6,1.1-1.5,2.1V17z"/>
<path class="st0" d="M5.4,40.2c0,1.1-0.4,2-1.5,1.6L1.6,41c-1-0.2-1.7-1.1-1.5-2.1v-5.7c-0.1-1,0.5-1.9,1.5-2.1l2.3-0.8
	c1.1-0.4,1.5,0.4,1.5,1.6V40.2L5.4,40.2z"/>
<path class="st0" d="M14,37.2c0,1.1-0.4,2-1.5,1.6L10.2,38c-1-0.2-1.7-1.1-1.5-2.1v-5.7c-0.1-1,0.5-1.9,1.5-2.1l2.3-0.8
	c1.1-0.4,1.5,0.4,1.5,1.6V37.2L14,37.2z"/>
<path class="st0" d="M22.6,40.2c0,1.1-0.4,2-1.5,1.6L18.8,41c-1-0.2-1.7-1.1-1.5-2.1V27.1c-0.1-1,0.5-1.9,1.5-2.1l2.3-0.8
	c1.1-0.4,1.5,0.4,1.5,1.6C22.6,25.8,22.6,40.2,22.6,40.2z"/>
<path class="st0" d="M31.1,37.1c0,1.1-0.4,2-1.5,1.6l-2.3-0.8c-1-0.2-1.7-1.1-1.5-2.1V24.1c-0.1-1,0.5-1.9,1.5-2.1l2.3-0.8
	c1.1-0.4,1.5,0.4,1.5,1.6V37.1z"/>
</svg>
