<?xml version="1.0" encoding="utf-8"?>
<!-- Generator: Adobe Illustrator 20.1.0, SVG Export Plug-In . SVG Version: 6.00 Build 0)  -->
<!DOCTYPE svg PUBLIC "-//W3C//DTD SVG 1.1//EN" "http://www.w3.org/Graphics/SVG/1.1/DTD/svg11.dtd">
<svg version="1.1" id="Layer_1" xmlns="http://www.w3.org/2000/svg" xmlns:xlink="http://www.w3.org/1999/xlink" x="0px" y="0px"
	 viewBox="0 0 64 64" style="enable-background:new 0 0 64 64;" xml:space="preserve">
<style type="text/css">
	.st0{fill:#FFFFFF;}
</style>
<g>
	<path class="st0" d="M2.2,33c0,2.1,0.8,3.8,2.9,3.1c1.7-0.6,2.7-1,4.4-1.5c1.9-0.4,3.1-2.1,2.9-4V9.6c0-2.1-0.8-3.8-2.9-3.1
		C7.8,7.1,6.8,7.5,5.1,8c-1.9,0.4-3.1,2.1-2.9,4C2.2,12.1,2.2,33,2.2,33z"/>
	<path class="st0" d="M18.7,27.2c0,2.1,0.8,3.8,2.9,3.1c1.7-0.6,2.7-1,4.4-1.5c1.9-0.4,3.1-2.1,3.1-4V3.8c0-2.1-0.8-3.8-2.9-3.1
		c-1.7,0.6-2.9,1-4.4,1.5c-1.9,0.4-3.1,2.1-2.9,4L18.7,27.2L18.7,27.2z"/>
	<path class="st0" d="M35.2,21.6c0,2.1,0.8,3.8,2.9,3.1c1.7-0.6,2.7-1,4.4-1.5c1.9-0.4,3.1-2.1,2.9-4V9.8c0-2.1-0.8-3.8-2.9-3.1
		c-1.7,0.6-2.7,1-4.4,1.5c-1.9,0.4-3.1,2.1-2.9,4V21.6L35.2,21.6z"/>
	<path class="st0" d="M51.6,15.7c0,2.1,0.8,3.8,2.9,3.1c1.7-0.6,2.7-1,4.4-1.5c1.9-0.4,3.1-2.1,2.9-4V3.8c0-2.1-0.8-3.8-2.9-3.1
		c-1.7,0.6-2.7,1-4.4,1.5c-1.9,0.4-3.1,2.1-2.9,4V15.7z"/>
	<path class="st0" d="M12.5,60.2c0,2.1-0.8,3.8-2.9,3.1l-4.4-1.5c-1.9-0.4-3.3-2.1-2.9-4V46.8c-0.2-1.9,1-3.6,2.9-4l4.4-1.5
		c2.1-0.8,2.9,0.8,2.9,3.1V60.2L12.5,60.2z"/>
	<path class="st0" d="M29,54.4c0,2.1-0.8,3.8-2.9,3.1L21.7,56c-1.9-0.4-3.3-2.1-2.9-4V41c-0.2-1.9,1-3.6,2.9-4l4.4-1.5
		c2.1-0.8,2.9,0.8,2.9,3.1V54.4L29,54.4z"/>
	<path class="st0" d="M45.5,60.2c0,2.1-0.8,3.8-2.9,3.1l-4.4-1.5c-1.9-0.4-3.3-2.1-2.9-4V35.1c-0.2-1.9,1-3.6,2.9-4l4.4-1.5
		c2.1-0.8,2.9,0.8,2.9,3.1C45.5,32.6,45.5,60.2,45.5,60.2z"/>
	<path class="st0" d="M61.8,54.2c0,2.1-0.8,3.8-2.9,3.1l-4.4-1.5c-1.9-0.4-3.3-2.1-2.9-4V29.3c-0.2-1.9,1-3.6,2.9-4l4.4-1.5
		c2.1-0.8,2.9,0.8,2.9,3.1V54.2z"/>
</g>
</svg>
